 <svg
      width="31.88" height="32"
      viewBox="0 0 486 512"
      fill="none"
      xmlns="http://www.w3.org/2000/svg">
      <path
        d="M149.931 1.80732C117.531 10.074 94.8641 41.674 97.5308 74.874C97.9308 80.2073 99.5308 88.074 100.997 92.3406C103.931 100.607 103.797 104.341 100.331 105.674C92.7308 108.607 86.1974 91.274 86.3308 68.474C86.3308 60.074 87.1308 53.8073 89.1308 47.4073C90.7308 42.3407 91.6641 37.8073 91.1308 37.4073C89.6641 35.9407 75.2641 39.8073 66.8641 43.8073C45.7974 54.2073 31.6641 75.0073 28.5974 99.9406C25.5308 125.274 41.3974 155.141 64.7308 167.541C78.9974 175.007 97.5308 177.674 113.264 174.341C121.397 172.607 124.731 174.607 123.264 180.207C122.331 184.207 121.397 184.607 108.197 186.474C83.5308 189.807 57.2641 180.474 39.9308 162.474C36.3308 158.741 32.8641 155.807 31.9308 155.807C28.5974 155.807 12.0641 173.941 7.93076 182.074C-6.60258 211.141 -0.869242 243.807 22.7308 265.941C33.9308 276.607 47.5308 282.474 65.5308 284.607C73.5308 285.541 76.5974 288.074 74.9974 292.341C72.3308 299.407 45.3974 294.607 27.7974 283.941C17.9308 277.941 17.7974 278.074 11.1308 288.474C-5.40258 314.474 -3.13591 348.607 16.8641 371.807L21.5308 377.407L26.8641 367.274C33.1308 355.141 45.1308 342.474 57.2641 335.407C66.3308 330.074 70.4641 329.274 73.1308 332.474C75.9308 335.807 73.9308 338.874 66.0641 343.407C54.4641 349.941 46.9974 356.607 40.5974 366.341C32.1974 379.007 28.7308 389.807 28.7308 404.474C28.4641 431.807 43.1308 456.074 66.8641 467.807C75.2641 471.941 89.6641 475.674 91.2641 474.207C91.6641 473.674 91.1308 470.341 89.9308 466.741C84.9974 451.807 85.1308 431.007 90.4641 415.274C100.064 386.074 130.197 362.607 158.464 361.941L167.131 361.807V366.341V371.007L155.131 373.407C139.397 376.474 128.064 382.341 117.531 392.874C100.464 409.941 93.3974 435.141 99.1308 457.807C107.797 491.674 137.397 513.674 171.264 511.407C196.464 509.674 218.864 494.607 229.664 471.807C236.197 458.341 237.264 449.141 236.864 413.274L236.464 381.941L231.931 380.874C222.197 378.341 211.931 363.674 211.797 352.341C211.664 349.407 210.464 347.674 206.597 345.007C200.331 340.607 196.197 332.341 194.997 321.674C194.331 314.741 193.664 313.274 190.597 311.407C186.597 309.007 185.131 306.607 180.997 295.407C179.531 291.141 174.997 283.674 170.997 278.741C162.197 267.807 155.664 255.674 151.664 242.474C149.131 234.474 148.464 229.407 148.464 216.474C148.464 198.207 151.131 187.407 159.531 171.141C166.597 157.541 183.664 140.874 198.064 133.407C208.997 127.807 226.064 122.474 233.397 122.474H237.131V93.4073C237.131 73.4073 236.464 61.674 235.131 55.4073C230.197 32.2073 212.064 11.5407 189.797 3.80732C179.264 0.0739888 160.464 -0.859344 149.931 1.80732Z"
        fill="#E6EDF3"
      />
      <path
        d="M306.464 0.740826C279.264 5.27416 255.531 28.0742 249.797 55.4075C248.464 61.6742 247.797 73.4075 247.797 93.4075V122.474H251.531C258.864 122.474 276.064 127.807 286.864 133.407C300.064 140.341 316.597 156.074 324.197 169.141C344.197 203.674 340.197 246.474 313.931 278.741C309.797 283.807 305.531 291.007 303.931 295.407C299.797 306.607 298.331 309.007 294.331 311.407C291.264 313.274 290.597 314.741 289.931 321.674C288.731 332.341 284.597 340.607 278.331 345.007C274.464 347.674 273.264 349.407 273.131 352.341C272.997 363.674 262.731 378.341 252.997 380.874L248.464 381.941L248.064 413.274C247.664 450.208 248.731 458.741 255.931 472.874C277.264 515.674 333.397 524.874 367.131 491.141C394.597 463.674 394.597 420.074 367.131 392.607C356.864 382.341 345.397 376.474 329.797 373.407L317.797 371.007V366.341V361.807L326.464 361.941C354.731 362.607 384.864 386.074 394.464 415.141C399.797 431.007 400.064 451.808 395.131 466.608C393.931 470.208 393.264 473.674 393.664 474.208C395.264 475.674 409.664 471.941 418.064 467.808C439.131 457.408 453.264 436.607 456.331 411.674C459.397 386.207 443.531 356.474 419.931 343.941C411.131 339.274 409.131 336.874 411.397 333.274C413.797 329.541 418.731 330.207 427.664 335.407C439.797 342.607 451.797 355.141 458.197 367.407L463.397 377.541L468.997 370.341C488.464 345.941 490.331 314.341 473.797 288.474C467.131 278.074 466.997 277.941 457.131 283.941C439.531 294.607 412.597 299.407 409.931 292.341C408.331 288.074 411.397 285.407 419.397 284.474C438.731 282.341 453.131 275.541 465.131 263.141C492.197 234.741 491.664 192.341 463.664 164.741C458.597 159.808 453.797 155.808 452.997 155.808C452.064 155.808 448.331 158.874 444.731 162.741C426.731 180.874 401.131 189.808 376.464 186.341C363.797 184.608 362.597 184.074 361.664 180.208C360.197 174.608 363.531 172.608 371.664 174.341C403.131 181.008 434.997 165.541 449.131 136.474C452.464 129.807 454.997 122.341 455.797 116.607C460.331 87.2742 444.464 56.8742 418.064 43.8075C409.664 39.8075 395.264 35.9408 393.797 37.4075C393.264 37.8075 394.197 42.3408 395.797 47.4075C403.131 70.8742 395.664 109.941 384.597 105.674C381.131 104.341 380.997 100.741 383.797 92.3408C397.131 53.8075 373.797 11.1408 334.331 1.80749C326.331 -0.0591738 314.064 -0.592507 306.464 0.740826Z"
        fill="#E6EDF3"
      />
      <path
        d="M225.131 135.141C210.064 138.474 195.264 146.874 183.797 158.341C167.264 175.008 159.664 193.141 159.664 215.941C159.664 237.408 165.264 253.008 179.531 271.141C186.997 280.608 193.131 291.941 193.131 296.074C193.131 297.408 194.331 299.674 195.797 301.141C198.197 303.541 200.197 303.808 217.797 303.808H237.131V271.274V238.741L232.864 235.141C230.464 233.141 225.397 229.674 221.531 227.541C214.064 223.274 212.331 219.274 216.464 215.808C219.264 213.408 223.664 215.008 233.797 221.808L242.731 227.808L248.997 223.274C261.664 214.074 269.264 212.341 270.864 218.341C271.664 221.808 269.797 223.941 262.197 228.208C258.864 230.208 254.197 233.408 251.931 235.274L247.797 238.741V271.274V303.808H267.131C284.731 303.808 286.731 303.541 289.131 301.141C290.597 299.674 291.797 297.408 291.797 296.074C291.797 291.941 297.931 280.741 305.797 270.608C320.064 251.941 325.131 237.674 325.264 216.741C325.264 201.541 323.664 194.341 317.131 180.474C307.664 160.608 289.797 144.874 268.197 137.674C255.264 133.408 237.664 132.341 225.131 135.141Z"
        fill="#E6EDF3"
      />
      <path
        d="M206.464 320.474C206.464 327.541 209.797 334.074 214.731 337.141C218.731 339.541 221.397 339.808 242.464 339.808C263.531 339.808 266.197 339.541 270.197 337.141C275.131 334.074 278.464 327.541 278.464 320.474V315.808H242.464H206.464V320.474Z"
        fill="#E6EDF3"
      />
      <path
        d="M223.797 356.608C226.064 366.741 237.264 373.274 247.531 370.608C253.931 368.874 259.664 362.874 261.131 356.608L262.197 351.808H242.464H222.731L223.797 356.608Z"
        fill="#E6EDF3"
      />
    </svg>